<?xml version="1.0" encoding="utf-8"?>
<!-- Generator: Adobe Illustrator 22.1.0, SVG Export Plug-In . SVG Version: 6.00 Build 0)  -->
<svg version="1.1" id="Laag_1" xmlns="http://www.w3.org/2000/svg" xmlns:xlink="http://www.w3.org/1999/xlink" x="0px" y="0px"
	 viewBox="0 0 100 100" style="enable-background:new 0 0 100 100;" xml:space="preserve">
<style type="text/css">
	.st0{fill:#FFFFFF;}
</style>
<g id="Icons">
	<g>
		<path class="st0" d="M95,42.9l-12-1.4c-0.8-3.2-2-6.2-3.6-9l7.5-9.4c1.8-2.2,1.6-5.5-0.4-7.5l-2.1-2.1c-2-2-5.3-2.3-7.5-0.4
			l-9.3,7.4c-2.9-1.8-6-3.1-9.1-3.9L57,5c-0.3-2.9-2.7-5-5.6-5h-2.9c-2.9,0-5.3,2.2-5.6,5l-1.3,11.4c-3.4,0.8-6.6,2.1-9.5,3.8
			l-8.9-7.1c-2.3-1.8-5.5-1.6-7.5,0.4l-2.1,2.1c-2,2-2.2,5.3-0.4,7.5l7,8.7c-1.9,3-3.3,6.3-4.1,9.7L5,42.9c-2.9,0.3-5,2.7-5,5.6v2.9
			c0,2.9,2.2,5.3,5,5.6l11,1.2c0.9,3.5,2.2,6.8,4.1,9.8l-6.9,8.7c-1.8,2.3-1.6,5.5,0.4,7.5l2.1,2.1c1.1,1.1,2.5,1.6,4,1.6
			c1.2,0,2.5-0.4,3.5-1.2l8.8-7c3,1.8,6.2,3,9.6,3.8L42.9,95c0.3,2.9,2.7,5,5.6,5h2.9c2.9,0,5.3-2.2,5.6-5l1.3-11.6
			c3.3-0.8,6.3-2.1,9.2-3.9l9.2,7.4c1,0.8,2.3,1.2,3.5,1.2c1.5,0,2.9-0.6,4-1.7l2.1-2.1c2-2,2.2-5.3,0.4-7.5l-7.4-9.4
			c1.6-2.8,2.9-5.8,3.7-9l12-1.4c2.9-0.3,5-2.7,5-5.6v-2.9C100,45.6,97.8,43.2,95,42.9z M67.2,50c0,9.7-7.9,17.6-17.6,17.6
			c-9.7,0-17.7-7.9-17.7-17.6c0-9.7,7.9-17.7,17.7-17.7C59.3,32.4,67.2,40.3,67.2,50z"/>
	</g>
</g>
</svg>
